<?xml version="1.0"?>
<svg xmlns="http://www.w3.org/2000/svg" class="icon--sprite">
  <defs>
    <symbol viewBox="0 0 24 24" stroke-linecap="round" stroke-linejoin="round" id="icon--add">
      <path d="M3 12a9 9 0 1 0 18 0a9 9 0 0 0 -18 0"/>
      <path d="M9 12h6"/>
      <path d="M12 9v6"/>
    </symbol>
    <symbol viewBox="0 0 24 24" stroke-linecap="round" stroke-linejoin="round" id="icon--arrow-down">
      <path d="M12 5l0 14"/>
      <path d="M18 13l-6 6"/>
      <path d="M6 13l6 6"/>
    </symbol>
    <symbol viewBox="0 0 24 24" stroke-linecap="round" stroke-linejoin="round" id="icon--arrow-up">
      <path d="M12 5l0 14"/>
      <path d="M18 11l-6 -6"/>
      <path d="M6 11l6 -6"/>
    </symbol>
    <symbol viewBox="0 0 24 24" stroke-linecap="round" stroke-linejoin="round" id="icon--arrows-down">
      <path d="M7 21l0 -18"/>
      <path d="M20 18l-3 3l-3 -3"/>
      <path d="M4 18l3 3l3 -3"/>
      <path d="M17 21l0 -18"/>
    </symbol>
    <symbol viewBox="0 0 24 24" stroke-linecap="round" stroke-linejoin="round" id="icon--arrows-up">
      <path d="M17 3l0 18"/>
      <path d="M4 6l3 -3l3 3"/>
      <path d="M20 6l-3 -3l-3 3"/>
      <path d="M7 3l0 18"/>
    </symbol>
    <symbol viewBox="0 0 24 24" stroke-linecap="round" stroke-linejoin="round" id="icon--comment">
      <path d="M8 9h8"/>
      <path d="M8 13h6"/>
      <path d="M18 4a3 3 0 0 1 3 3v8a3 3 0 0 1 -3 3h-5l-5 3v-3h-2a3 3 0 0 1 -3 -3v-8a3 3 0 0 1 3 -3h12z"/>
    </symbol>
    <symbol viewBox="0 0 24 24" stroke-linecap="round" stroke-linejoin="round" id="icon--edit">
      <path d="M7 7h-1a2 2 0 0 0 -2 2v9a2 2 0 0 0 2 2h9a2 2 0 0 0 2 -2v-1"/>
      <path d="M20.385 6.585a2.1 2.1 0 0 0 -2.97 -2.97l-8.415 8.385v3h3l8.385 -8.415z"/>
      <path d="M16 5l3 3"/>
    </symbol>
  </defs>
</svg>
